<svg width="64" height="64" viewBox="0 0 64 64" fill="none" xmlns="http://www.w3.org/2000/svg">
<path d="M51.424 10.2708C48.2307 7.04016 43.6733 5.3335 38.2467 5.3335C35.9253 5.3335 33.844 5.62683 32.052 6.20816C30.2573 5.62683 28.176 5.3335 25.856 5.3335C20.964 5.3335 16.82 6.79483 13.7507 9.35083C15.112 10.4508 16 12.1135 16 14.0002C16 17.3135 13.3133 20.0002 10 20.0002C9.372 20.0002 8.77733 19.8762 8.208 19.6975C8.084 20.6028 8 21.5308 8 22.5002C8 26.7628 9.796 29.9455 11.5307 33.0228C12.7547 35.1908 14.02 37.4335 14.756 40.1522C15.1867 41.7802 15.5693 43.5228 15.9387 45.2082C17.4587 52.1295 18.892 58.6668 23.7893 58.6668C27.2107 58.6668 29.2533 56.2348 29.2533 52.1615C29.2533 47.2482 30.3027 40.7242 31.0853 36.2775C31.2467 35.4922 31.8787 35.4482 32.0573 35.4442C32.2747 35.4482 32.7907 35.5335 32.908 36.2468C34.1267 43.0388 34.7453 48.3922 34.7453 52.1615C34.7453 56.2348 36.788 58.6668 40.2093 58.6668C45.0867 58.6668 46.52 52.1562 48.0387 45.2642C48.4147 43.5575 48.804 41.7922 49.24 40.1602C49.98 37.4335 51.244 35.1908 52.468 33.0228C54.204 29.9455 55.9987 26.7628 55.9987 22.5135C56.052 17.5842 54.472 13.3508 51.424 10.2708Z" fill="#BBDEFB"/>
<path d="M36.1919 5.42529C34.6866 5.54929 33.2959 5.80529 32.0506 6.20796C32.0426 6.20529 32.0333 6.20396 32.0239 6.20129C34.9106 7.36129 37.4986 9.58529 39.5119 12.724C39.7666 13.1213 40.1959 13.3373 40.6359 13.3373C40.8826 13.3373 41.1319 13.2693 41.3546 13.1266C41.9746 12.7293 42.1559 11.904 41.7573 11.2853C40.1879 8.83863 38.2973 6.87196 36.1919 5.42529Z" fill="#102C57"/>
<path d="M14.5734 10.116C15.4628 11.1626 16.0001 12.5186 16.0001 14C16.0001 17.3133 13.3134 20 10.0001 20C9.62009 20 9.54276 19.968 9.37476 19.968" stroke="#102C57" stroke-width="4.375" stroke-miterlimit="10" stroke-linecap="round"/>
</svg>
