<svg width="64" height="64" viewBox="0 0 64 64" fill="none" xmlns="http://www.w3.org/2000/svg">
<path d="M19.0039 5.33325H18.3293C11.1519 5.33325 5.33325 11.1519 5.33325 18.3293V43.9999H31.9999V18.3293C31.9999 11.1519 26.1813 5.33325 19.0039 5.33325Z" fill="#BBDEFB"/>
<path d="M31.9999 21.3333H58.6666V34.6666H31.9999V21.3333ZM17.3333 43.9999H19.9999V57.3333H17.3333V43.9999Z" fill="#102C57"/>
<path d="M18.6667 52C17.6059 52 16.5885 52.4214 15.8383 53.1716C15.0882 53.9217 14.6667 54.9391 14.6667 56C14.6667 57.0609 15.0882 58.0783 15.8383 58.8284C16.5885 59.5786 17.6059 60 18.6667 60C19.7276 60 20.745 59.5786 21.4952 58.8284C22.2453 58.0783 22.6667 57.0609 22.6667 56C22.6667 54.9391 22.2453 53.9217 21.4952 53.1716C20.745 52.4214 19.7276 52 18.6667 52Z" fill="#102C57"/>
<path d="M20.0001 10.6667C15.8094 9.58271 12.2454 12.572 11.0454 15.8294Z" fill="#102C57"/>
<path d="M20.0001 10.6667C15.8094 9.58271 12.2454 12.572 11.0454 15.8294" stroke="#FAFAFA" stroke-width="2" stroke-miterlimit="10" stroke-linecap="round" stroke-linejoin="round"/>
</svg>
