<svg width="64" height="64" viewBox="0 0 64 64" fill="none" xmlns="http://www.w3.org/2000/svg">
<path d="M51.424 10.2708C48.2307 7.04016 43.6733 5.3335 38.2467 5.3335C35.9253 5.3335 33.844 5.62683 32.052 6.20816C30.2573 5.62683 28.176 5.3335 25.856 5.3335C15.176 5.3335 8 12.2322 8 22.5002C8 26.7628 9.796 29.9455 11.5307 33.0228C12.7547 35.1908 14.02 37.4335 14.756 40.1522C15.1867 41.7802 15.5693 43.5228 15.9387 45.2082C17.4587 52.1295 18.892 58.6668 23.7893 58.6668C27.2107 58.6668 29.2533 56.2348 29.2533 52.1615C29.2533 47.2482 30.3027 40.7242 31.0853 36.2775C31.2467 35.4922 31.8787 35.4482 32.0573 35.4442C32.2747 35.4482 32.7907 35.5335 32.908 36.2468C34.1267 43.0388 34.7453 48.3922 34.7453 52.1615C34.7453 56.2348 36.788 58.6668 40.2093 58.6668C45.0867 58.6668 46.52 52.1562 48.0387 45.2642C48.4147 43.5575 48.804 41.7922 49.24 40.1602C49.98 37.4335 51.244 35.1908 52.468 33.0228C54.204 29.9455 55.9987 26.7628 55.9987 22.5135C56.052 17.5842 54.472 13.3508 51.424 10.2708Z" fill="#BBDEFB"/>
<path d="M21.576 13.6064H29.848M15.46 26.5198L19.4186 33.7838M20.9013 21.0744L28.1586 25.0464" stroke="#102C57" stroke-width="2.66667" stroke-miterlimit="10" stroke-linecap="round" stroke-linejoin="round"/>
<path d="M21.0973 5.85059C19.956 6.10125 18.8733 6.44125 17.8573 6.87059C21.5186 8.92792 24 12.8439 24 17.3333C24 23.9493 18.6173 29.3333 12 29.3333C11.1346 29.3333 10.2933 29.2373 9.47998 29.0626C9.91865 30.0586 10.4133 31.0146 10.928 31.9466C11.284 31.9719 11.6386 31.9999 12 31.9999C20.0866 31.9999 26.6666 25.4199 26.6666 17.3333C26.6666 12.6826 24.484 8.53992 21.0973 5.85059Z" fill="#102C57"/>
</svg>
