<svg width="64" height="64" viewBox="0 0 64 64" fill="none" xmlns="http://www.w3.org/2000/svg">
<path d="M56 28.0002C56 26.6668 55.9987 24.0202 55.9987 22.5148C56.052 17.5842 54.4707 13.3508 51.424 10.2708C48.2307 7.04016 43.6733 5.3335 38.2467 5.3335C35.9253 5.3335 33.844 5.62683 32.052 6.20816C30.2573 5.62683 28.176 5.3335 25.856 5.3335C15.176 5.3335 8 12.2322 8 22.5002C8 24.0122 8 26.6668 8 28.0002H56Z" fill="#BBDEFB"/>
<path d="M36.1919 5.42529C34.6866 5.54929 33.2959 5.80529 32.0506 6.20796C32.0426 6.20529 32.0333 6.20396 32.0239 6.20129C34.9106 7.36129 37.4986 9.58529 39.5119 12.724C39.7666 13.1213 40.1959 13.3373 40.6359 13.3373C40.8826 13.3373 41.1319 13.2693 41.3546 13.1266C41.9746 12.7293 42.1559 11.904 41.7573 11.2853C40.1879 8.83863 38.2973 6.87196 36.1919 5.42529Z" fill="#102C57"/>
<path d="M38.6666 53.3332L31.9999 58.6665L25.3333 53.3332V26.6665H38.6666V53.3332Z" fill="#CFD8DC"/>
<path d="M8 25.3335H56V28.0002H8V25.3335Z" fill="#102C57"/>
<path d="M38.6666 31.8535L25.3333 36.0202V38.8135L38.6666 34.6469V31.8535ZM38.6666 42.5202L25.3333 46.6868V49.4802L38.6666 45.3135V42.5202Z" fill="#90A4AE"/>
</svg>
