<svg width="64" height="64" viewBox="0 0 64 64" fill="none" xmlns="http://www.w3.org/2000/svg">
<path d="M50.1199 10.2706C46.9266 7.04125 42.3693 5.33325 36.9426 5.33325C34.6199 5.33325 32.5359 5.62525 30.7453 6.20792C28.9533 5.62525 26.8693 5.33325 24.5519 5.33325C13.8693 5.33325 6.69727 12.2346 6.69727 22.4999C6.69727 26.7599 8.48927 29.9479 10.2293 33.0213C11.4533 35.1933 12.7133 37.4319 13.4533 40.1506C13.8799 41.7813 14.2653 43.5213 14.6359 45.2079C16.1506 52.1306 17.5879 58.6666 22.4839 58.6666C25.9066 58.6666 27.9479 56.2346 27.9479 52.1613C27.9479 47.2493 28.9999 40.7239 29.7813 36.2759C29.9426 35.4893 30.5733 35.4479 30.7546 35.4426C30.9693 35.4479 31.4839 35.5306 31.6039 36.2453C32.8226 43.0359 33.4426 48.3906 33.4426 52.1613C33.4426 56.2346 35.4839 58.6666 38.9066 58.6666C43.7813 58.6666 45.2133 52.1559 46.7346 45.2653C47.1093 43.5573 47.4999 41.7919 47.9373 40.1613C48.6773 37.4319 49.9373 35.1933 51.1613 33.0213C52.9013 29.9479 54.6933 26.7599 54.6933 22.5159C54.7506 17.5826 53.1666 13.3493 50.1199 10.2706Z" fill="#BBDEFB"/>
<path d="M34.8854 5.42676C33.3801 5.54676 31.9894 5.80676 30.7454 6.20809C30.7401 6.20276 30.7294 6.20276 30.7188 6.20276C33.6041 7.36009 36.1934 9.58276 38.2081 12.7241C38.4641 13.1201 38.8908 13.3388 39.3281 13.3388C39.5788 13.3388 39.8281 13.2708 40.0468 13.1254C40.6721 12.7294 40.8494 11.9068 40.4534 11.2868C38.8854 8.83876 36.9948 6.86942 34.8854 5.42676Z" fill="#102C57"/>
<path d="M35.7454 32H25.5881C23.9747 32 22.6667 30.692 22.6667 29.0787V18.9213C22.6667 17.308 23.9747 16 25.5881 16H35.7454C37.3587 16 38.6667 17.308 38.6667 18.9213V29.0787C38.6667 30.692 37.3587 32 35.7454 32Z" fill="#102C57" fill-opacity="0.79"/>
<path d="M25.3333 18.6665H27.9999V21.3332H25.3333V18.6665ZM33.3333 18.6665H35.9999V21.3332H33.3333V18.6665ZM25.3333 26.6665H27.9999V29.3332H25.3333V26.6665ZM33.3333 26.6665H35.9999V29.3332H33.3333V26.6665Z" fill="#BBDEFB"/>
<path d="M6.97732 25.3332H54.4147C54.5787 24.4892 54.676 23.6038 54.6853 22.6665H6.70532C6.71599 23.6038 6.81332 24.4892 6.97732 25.3332Z" fill="#102C57"/>
</svg>
