<svg width="64" height="64" viewBox="0 0 64 64" fill="none" xmlns="http://www.w3.org/2000/svg">
<path d="M51.4533 10.2708C48.26 7.04016 43.7026 5.3335 38.2746 5.3335C35.9533 5.3335 33.872 5.62683 32.08 6.20816C30.2866 5.62683 28.2053 5.3335 25.884 5.3335C15.2053 5.3335 8.0293 12.2322 8.0293 22.5002C8.0293 26.7628 9.8253 29.9455 11.56 33.0228C12.784 35.1908 14.0493 37.4335 14.7853 40.1522C15.216 41.7802 15.5986 43.5228 15.968 45.2082C17.4866 52.1295 18.9213 58.6668 23.8186 58.6668C27.24 58.6668 29.2826 56.2348 29.2826 52.1615C29.2826 47.2482 30.332 40.7242 31.1146 36.2775C31.276 35.4922 31.908 35.4482 32.0866 35.4442C32.304 35.4482 32.82 35.5335 32.9373 36.2468C34.156 43.0388 34.7746 48.3922 34.7746 52.1615C34.7746 56.2348 36.8173 58.6668 40.2386 58.6668C45.116 58.6668 46.5493 52.1562 48.068 45.2642C48.444 43.5575 48.8333 41.7922 49.2693 40.1602C50.0093 37.4335 51.2733 35.1908 52.4973 33.0228C54.2333 29.9455 56.028 26.7628 56.028 22.5135C56.0813 17.5842 54.5 13.3508 51.4533 10.2708Z" fill="#BBDEFB"/>
<path d="M36.22 5.42529C34.7147 5.54929 33.324 5.80529 32.0787 6.20796C32.0707 6.20529 32.0613 6.20396 32.052 6.20129C34.9387 7.36129 37.5267 9.58529 39.54 12.724C39.7947 13.1213 40.224 13.3373 40.664 13.3373C40.9107 13.3373 41.16 13.2693 41.3827 13.1266C42.0027 12.7293 42.184 11.904 41.7853 11.2853C40.2173 8.83863 38.3267 6.87196 36.22 5.42529Z" fill="#102C57"/>
<path d="M21.3333 16C20.2724 16 19.255 16.4214 18.5048 17.1716C17.7547 17.9217 17.3333 18.9391 17.3333 20C17.3333 21.0609 17.7547 22.0783 18.5048 22.8284C19.255 23.5786 20.2724 24 21.3333 24C22.3941 24 23.4115 23.5786 24.1617 22.8284C24.9118 22.0783 25.3333 21.0609 25.3333 20C25.3333 18.9391 24.9118 17.9217 24.1617 17.1716C23.4115 16.4214 22.3941 16 21.3333 16Z" fill="#102C57"/>
</svg>
